<svg width="169" height="169" viewBox="0 0 169 169" fill="none" xmlns="http://www.w3.org/2000/svg">
<ellipse cx="84" cy="85" rx="66" ry="60" fill="white"/>
<path d="M84.4999 14.0834C45.6299 14.0834 14.0833 45.63 14.0833 84.5C14.0833 123.37 45.6299 154.917 84.4999 154.917C123.37 154.917 154.917 123.37 154.917 84.5C154.917 45.63 123.37 14.0834 84.4999 14.0834ZM84.4999 35.2084C96.1891 35.2084 105.625 44.6442 105.625 56.3334C105.625 68.0225 96.1891 77.4584 84.4999 77.4584C72.8108 77.4584 63.3749 68.0225 63.3749 56.3334C63.3749 44.6442 72.8108 35.2084 84.4999 35.2084ZM84.4999 135.2C66.8958 135.2 51.3337 126.187 42.2499 112.526C42.4612 98.513 70.4166 90.8375 84.4999 90.8375C98.5128 90.8375 126.539 98.513 126.75 112.526C117.666 126.187 102.104 135.2 84.4999 135.2Z" fill="black"/>
</svg>
