<svg width="57" height="57" viewBox="0 0 57 57" fill="none" xmlns="http://www.w3.org/2000/svg">
<path d="M19.8333 27.625C17.8783 27.625 16.2917 29.2117 16.2917 31.1667C16.2917 33.1217 17.8783 34.7083 19.8333 34.7083C21.7883 34.7083 23.375 33.1217 23.375 31.1667C23.375 29.2117 21.7883 27.625 19.8333 27.625ZM36.8333 27.625C34.8783 27.625 33.2917 29.2117 33.2917 31.1667C33.2917 33.1217 34.8783 34.7083 36.8333 34.7083C38.7883 34.7083 40.375 33.1217 40.375 31.1667C40.375 29.2117 38.7883 27.625 36.8333 27.625ZM28.3333 0C12.6933 0 0 12.6933 0 28.3333C0 43.9733 12.6933 56.6667 28.3333 56.6667C43.9733 56.6667 56.6667 43.9733 56.6667 28.3333C56.6667 12.6933 43.9733 0 28.3333 0ZM28.3333 51C15.8383 51 5.66667 40.8283 5.66667 28.3333C5.66667 27.5117 5.72333 26.69 5.80833 25.8967C12.495 22.9217 17.7933 17.4533 20.57 10.6817C25.6983 17.935 34.1417 22.6667 43.69 22.6667C45.9 22.6667 48.025 22.4117 50.065 21.93C50.66 23.9417 51 26.095 51 28.3333C51 40.8283 40.8283 51 28.3333 51Z" fill="#008DB3"/>
</svg>
