<svg width="59" height="59" viewBox="0 0 59 59" fill="none" xmlns="http://www.w3.org/2000/svg">
<path d="M29.5 0.75C13.63 0.75 0.75 13.63 0.75 29.5C0.75 45.37 13.63 58.25 29.5 58.25H43.875V52.5H29.5C17.0225 52.5 6.5 41.9775 6.5 29.5C6.5 17.0225 17.0225 6.5 29.5 6.5C41.9775 6.5 52.5 17.0225 52.5 29.5V33.6113C52.5 35.8825 50.4588 38.125 48.1875 38.125C45.9162 38.125 43.875 35.8825 43.875 33.6113V29.5C43.875 21.565 37.435 15.125 29.5 15.125C21.565 15.125 15.125 21.565 15.125 29.5C15.125 37.435 21.565 43.875 29.5 43.875C33.4675 43.875 37.09 42.265 39.6775 39.6488C41.5462 42.2075 44.7663 43.875 48.1875 43.875C53.8512 43.875 58.25 39.275 58.25 33.6113V29.5C58.25 13.63 45.37 0.75 29.5 0.75ZM29.5 38.125C24.7275 38.125 20.875 34.2725 20.875 29.5C20.875 24.7275 24.7275 20.875 29.5 20.875C34.2725 20.875 38.125 24.7275 38.125 29.5C38.125 34.2725 34.2725 38.125 29.5 38.125Z" fill="#FF4621"/>
</svg>
